<?xml version="1.0" encoding="UTF-8" standalone="no"?>
<svg
   width="1220.3842mm"
   height="503.5433mm"
   viewBox="0 0 1220.3842 503.54332"
   version="1.1"
   id="svg1733"
   sodipodi:docname="rso_logo.svg"
   inkscape:label="kasten_ol"
   inkscape:version="1.1 (c68e22c387, 2021-05-23)"
   xmlns:inkscape="http://www.inkscape.org/namespaces/inkscape"
   xmlns:sodipodi="http://sodipodi.sourceforge.net/DTD/sodipodi-0.dtd"
   xmlns="http://www.w3.org/2000/svg"
   xmlns:svg="http://www.w3.org/2000/svg">
  <defs
     id="defs1737" />
  <sodipodi:namedview
     id="namedview1735"
     pagecolor="#ffffff"
     bordercolor="#666666"
     borderopacity="1.0"
     inkscape:pageshadow="2"
     inkscape:pageopacity="0.0"
     inkscape:pagecheckerboard="0"
     inkscape:document-units="mm"
     showgrid="false"
     inkscape:zoom="0.24349754"
     inkscape:cx="1940.4714"
     inkscape:cy="671.46469"
     inkscape:window-width="1920"
     inkscape:window-height="1009"
     inkscape:window-x="-8"
     inkscape:window-y="-8"
     inkscape:window-maximized="1"
     inkscape:current-layer="svg1733"
     fit-margin-top="0"
     fit-margin-left="0"
     fit-margin-right="15"
     fit-margin-bottom="0"
     scale-x="1" />
  <path
     id="Unnamed #3-3"
     fill="none"
     stroke="#000000"
     stroke-width="1"
     d="m 1.7716471,501.77165 c 0,0 250.0000029,0 250.0000029,0 0,0 0,-250 0,-250 0,0 -250.0000029,0 -250.0000029,0 0,0 0,250 0,250"
     style="fill:#bf0043;fill-opacity:1;stroke:none" />
  <path
     id="Unnamed #3-5"
     fill="none"
     stroke="#000000"
     stroke-width="1"
     d="m 251.77165,501.77165 c 0,0 250,0 250,0 0,0 0,-250 0,-250 0,0 -250,0 -250,0 0,0 0,250 0,250"
     style="fill:#bfbfbf;fill-opacity:1;stroke:none" />
  <path
     id="Unnamed #3-4"
     fill="none"
     stroke="#000000"
     stroke-width="1"
     d="m 251.77165,251.77165 c 0,0 250,0 250,0 0,0 0,-250 0,-250 0,0 -250,0 -250,0 0,0 0,250 0,250"
     style="display:inline;fill:#fbb900;fill-opacity:1;stroke:none" />
  <path
     id="Unnamed #3"
     fill="none"
     stroke="#000000"
     stroke-width="1"
     d="m 1.77165,251.77165 c 0,0 250,0 250,0 0,0 0,-250 0,-250 0,0 -250,0 -250,0 0,0 0,250 0,250"
     style="display:inline;fill:#ffffff;fill-opacity:1;stroke:none" />
  <path
     id="Unnamed #6"
     fill="none"
     stroke="#000000"
     stroke-width="1"
     d="m 501.77165,251.77165 c 0,0 -500.0000029,0 -500.0000029,0 m 250.0000029,250 c 0,0 0,-500 0,-500"
     style="display:inline;stroke:#969696;stroke-width:3.36614;stroke-linecap:round;stroke-miterlimit:4;stroke-dasharray:none;stroke-opacity:1" />
  <path
     id="Unnamed #4"
     fill="none"
     stroke="#000000"
     stroke-width="1"
     d="m 501.77165,501.77165 v -500 h -500 v 500 h 500"
     style="display:inline;fill:none;fill-opacity:1;stroke:#969696;stroke-width:3.5433;stroke-linecap:square;stroke-linejoin:miter;stroke-miterlimit:4;stroke-dasharray:none;stroke-opacity:1;paint-order:stroke fill markers"
     sodipodi:nodetypes="ccccc" />
  <path
     id="Path"
     fill="none"
     stroke="#000000"
     stroke-width="1"
     d="m 621.6799,128.8389 c 0,0.41 -0.08,0.78 -0.24,1.09 -0.15,0.3 -0.49,0.56 -1.01,0.77 -0.52,0.21 -1.25,0.36 -2.17,0.46 -0.93,0.11 -2.17,0.16 -3.72,0.16 -1.36,0 -2.46,-0.05 -3.31,-0.16 -0.86,-0.1 -1.55,-0.27 -2.07,-0.5 -0.51,-0.23 -0.91,-0.56 -1.2,-0.96 -0.28,-0.42 -0.53,-0.94 -0.73,-1.57 0,0 -9.24,-23.67 -9.24,-23.67 -1.08,-2.69 -2.21,-5.160002 -3.37,-7.410002 -1.17,-2.25 -2.56,-4.18 -4.16,-5.81 -1.6,-1.63 -3.5,-2.9 -5.67,-3.81 -2.17,-0.91 -4.78,-1.36 -7.83,-1.36 0,0 -8.94,0 -8.94,0 0,0 0,42.770002 0,42.770002 0,0.41 -0.11,0.78 -0.34,1.09 -0.23,0.3 -0.59,0.55 -1.09,0.73 -0.5,0.18 -1.17,0.34 -2.02,0.47 -0.86,0.13 -1.93,0.19 -3.22,0.19 -1.29,0 -2.37,-0.06 -3.22,-0.19 -0.85,-0.13 -1.54,-0.29 -2.06,-0.47 -0.52,-0.17 -0.89,-0.41 -1.09,-0.72 -0.2,-0.31 -0.3,-0.67 -0.3,-1.09 0,0 0,-92.140002 0,-92.140002 0,-2 0.52,-3.39 1.58,-4.19 1.06,-0.8 2.19,-1.2 3.39,-1.2 0,0 21.34,0 21.34,0 2.54,0 4.65,0.06 6.33,0.19 1.68,0.12 3.19,0.26 4.55,0.42 3.87,0.67 7.3,1.71 10.28,3.14 2.97,1.42 5.47,3.22 7.48,5.41 2.02,2.18 3.54,4.69 4.55,7.51 1.01,2.83 1.52,5.94 1.52,9.35 0,3.3 -0.46,6.26 -1.36,8.89 -0.91,2.61 -2.22,4.93 -3.93,6.93 -1.71,2.02 -3.75,3.76 -6.14,5.24 -2.37,1.47 -5.04,2.71 -7.98,3.73 1.65,0.73 3.15,1.65 4.5,2.77 1.34,1.1 2.6,2.43 3.76,3.98 1.17,1.56 2.27,3.34 3.3,5.36 1.04,2.01 2.08,4.29 3.11,6.830002 0,0 9,22.11 9,22.11 0.73,1.85 1.2,3.16 1.41,3.91 0.2,0.75 0.31,1.33 0.31,1.75 z m -20.11,-70.100002 c 0,-3.83 -0.88,-7.07 -2.64,-9.72 -1.76,-2.65 -4.72,-4.56 -8.86,-5.72 -1.29,-0.35 -2.76,-0.6 -4.39,-0.75 -1.63,-0.15 -3.76,-0.23 -6.39,-0.23 0,0 -11.27,0 -11.27,0 0,0 0,33 0,33 0,0 13.05,0 13.05,0 3.52,0 6.56,-0.41 9.13,-1.25 2.56,-0.83 4.69,-1.99 6.4,-3.48 1.71,-1.49 2.96,-3.24 3.77,-5.25 0.8,-2.02 1.2,-4.22 1.2,-6.6 z m 94.25,32.99 c 0,2.02 -0.51,3.46 -1.52,4.31 -1.01,0.85 -2.16,1.28 -3.45,1.28 0,0 -45.8,0 -45.8,0 0,3.750002 0.39,7.120002 1.16,10.120002 0.78,3 2.08,5.56 3.89,7.71 1.81,2.15 4.17,3.79 7.06,4.95 2.9,1.15 6.45,1.72 10.64,1.72 3.32,0 6.26,-0.25 8.85,-0.77 2.58,-0.52 4.81,-1.09 6.7,-1.73 1.9,-0.63 3.45,-1.21 4.67,-1.72 1.22,-0.52 2.14,-0.78 2.75,-0.78 0.37,0 0.69,0.09 0.97,0.28 0.29,0.18 0.52,0.45 0.67,0.81 0.16,0.37 0.27,0.88 0.35,1.53 0.07,0.66 0.11,1.46 0.11,2.4 0,0.68 -0.03,1.26 -0.08,1.76 -0.06,0.49 -0.12,0.93 -0.19,1.33 -0.07,0.4 -0.2,0.75 -0.39,1.06 -0.18,0.31 -0.41,0.62 -0.7,0.91 -0.28,0.28 -1.12,0.73 -2.52,1.34 -1.4,0.62 -3.21,1.22 -5.44,1.81 -2.21,0.59 -4.79,1.11 -7.71,1.57 -2.93,0.47 -6.05,0.7 -9.36,0.7 -5.75,0 -10.78,-0.79 -15.1,-2.38 -4.32,-1.59 -7.96,-3.95 -10.92,-7.07 -2.95,-3.13 -5.17,-7.04 -6.67,-11.75 -1.5,-4.72 -2.25,-10.21 -2.25,-16.460002 0,-5.93 0.77,-11.27 2.33,-16.01 1.55,-4.74 3.79,-8.76 6.72,-12.06 2.92,-3.32 6.45,-5.85 10.59,-7.61 4.14,-1.77 8.78,-2.66 13.91,-2.66 5.47,0 10.14,0.88 14,2.64 3.86,1.76 7.03,4.13 9.51,7.11 2.49,2.97 4.31,6.46 5.47,10.48 1.16,4.02 1.75,8.3 1.75,12.85 0,0 0,2.33 0,2.33 z m -12.89,-3.91 c 0.16,-6.7 -1.34,-11.95 -4.47,-15.77 -3.12,-3.82 -7.76,-5.73 -13.92,-5.73 -3.16,0 -5.93,0.59 -8.31,1.78 -2.38,1.19 -4.37,2.76 -5.97,4.72 -1.61,1.96 -2.85,4.24 -3.74,6.84 -0.87,2.61 -1.36,5.33 -1.47,8.16 0,0 37.88,0 37.88,0 z m 135.92,41.120002 c 0,0.41 -0.1,0.76 -0.31,1.04 -0.21,0.28 -0.55,0.52 -1.02,0.73 -0.47,0.2 -1.12,0.35 -1.95,0.45 -0.82,0.11 -1.86,0.16 -3.09,0.16 -1.3,0 -2.36,-0.05 -3.19,-0.16 -0.83,-0.1 -1.49,-0.25 -1.99,-0.45 -0.49,-0.21 -0.84,-0.45 -1.04,-0.73 -0.2,-0.28 -0.3,-0.63 -0.3,-1.04 0,0 0,-42.030002 0,-42.030002 0,-2.91 -0.26,-5.57 -0.78,-7.98 -0.52,-2.41 -1.35,-4.49 -2.48,-6.23 -1.14,-1.74 -2.59,-3.07 -4.35,-3.99 -1.76,-0.93 -3.83,-1.39 -6.22,-1.39 -2.95,0 -5.91,1.13 -8.89,3.39 -2.97,2.25 -6.24,5.56 -9.81,9.91 0,0 0,48.320002 0,48.320002 0,0.41 -0.11,0.76 -0.31,1.04 -0.21,0.28 -0.56,0.52 -1.05,0.73 -0.49,0.2 -1.15,0.35 -1.98,0.45 -0.83,0.11 -1.86,0.16 -3.11,0.16 -1.19,0 -2.21,-0.05 -3.07,-0.16 -0.85,-0.1 -1.52,-0.25 -2.01,-0.45 -0.49,-0.21 -0.83,-0.45 -1.02,-0.73 -0.18,-0.28 -0.26,-0.63 -0.26,-1.04 0,0 0,-42.030002 0,-42.030002 0,-2.91 -0.29,-5.57 -0.86,-7.98 -0.56,-2.41 -1.42,-4.49 -2.56,-6.23 -1.14,-1.74 -2.58,-3.07 -4.32,-3.99 -1.73,-0.93 -3.78,-1.39 -6.15,-1.39 -2.96,0 -5.94,1.13 -8.94,3.39 -3,2.25 -6.26,5.56 -9.78,9.91 0,0 0,48.320002 0,48.320002 0,0.41 -0.11,0.76 -0.31,1.04 -0.22,0.28 -0.55,0.52 -1.02,0.73 -0.46,0.2 -1.11,0.35 -1.94,0.45 -0.82,0.11 -1.88,0.16 -3.17,0.16 -1.25,0 -2.29,-0.05 -3.13,-0.16 -0.82,-0.1 -1.48,-0.25 -1.96,-0.45 -0.5,-0.21 -0.83,-0.45 -1.02,-0.73 -0.18,-0.28 -0.26,-0.63 -0.26,-1.05 0,0 0,-69.220002 0,-69.220002 0,-0.41 0.07,-0.77 0.23,-1.05 0.16,-0.28 0.46,-0.53 0.92,-0.76 0.47,-0.23 1.07,-0.38 1.8,-0.46 0.72,-0.08 1.69,-0.12 2.87,-0.12 1.14,0 2.08,0.04 2.83,0.12 0.75,0.08 1.33,0.23 1.75,0.46 0.42,0.23 0.71,0.48 0.89,0.76 0.19,0.28 0.28,0.64 0.28,1.05 0,0 0,9.14 0,9.14 3.93,-4.33 7.74,-7.5 11.44,-9.51 3.71,-2.01 7.45,-3.02 11.22,-3.02 2.91,0 5.51,0.34 7.81,1 2.3,0.66 4.33,1.59 6.1,2.78 1.75,1.2 3.25,2.63 4.5,4.28 1.23,1.66 2.27,3.51 3.1,5.55 2.33,-2.5 4.54,-4.61 6.63,-6.34 2.1,-1.74 4.13,-3.15 6.06,-4.21 1.95,-1.07 3.84,-1.85 5.67,-2.33 1.84,-0.48 3.68,-0.73 5.55,-0.73 4.5,0 8.27,0.78 11.33,2.34 3.06,1.57 5.53,3.66 7.42,6.27 1.88,2.62 3.23,5.68 4.03,9.19 0.81,3.5 1.22,7.2 1.22,11.09 0,0 0,43.730002 0,43.730002 z m 88.33,-35.350002 c 0,5.63 -0.75,10.820002 -2.25,15.560002 -1.5,4.74 -3.74,8.83 -6.72,12.26 -2.98,3.43 -6.71,6.11 -11.19,8.03 -4.47,1.92 -9.65,2.88 -15.56,2.88 -5.74,0 -10.75,-0.84 -15.02,-2.53 -4.27,-1.7 -7.82,-4.16 -10.67,-7.38 -2.84,-3.22 -4.97,-7.14 -6.37,-11.76 -1.4,-4.62 -2.1,-9.84 -2.1,-15.670002 0,-5.64 0.74,-10.82 2.21,-15.57 1.47,-4.73 3.7,-8.82 6.69,-12.25 2.97,-3.43 6.69,-6.1 11.14,-8 4.44,-1.89 9.64,-2.84 15.6,-2.84 5.74,0 10.75,0.85 15.02,2.55 4.27,1.68 7.83,4.15 10.67,7.37 2.85,3.22 4.99,7.14 6.41,11.75 1.42,4.62 2.14,9.81 2.14,15.6 z m -13.5,0.89 c 0,-3.73 -0.36,-7.25 -1.06,-10.57 -0.7,-3.32 -1.85,-6.23 -3.46,-8.73 -1.6,-2.5 -3.77,-4.47 -6.51,-5.92 -2.74,-1.46 -6.16,-2.19 -10.25,-2.19 -3.78,0 -7.03,0.67 -9.75,2 -2.71,1.32 -4.95,3.2 -6.71,5.63 -1.76,2.41 -3.07,5.28 -3.92,8.6 -0.85,3.32 -1.28,6.94 -1.28,10.86 0,3.78 0.35,7.340002 1.05,10.660002 0.69,3.31 1.86,6.21 3.48,8.69 1.64,2.47 3.82,4.43 6.57,5.89 2.75,1.45 6.16,2.17 10.25,2.17 3.72,0 6.96,-0.66 9.7,-1.98 2.75,-1.34 5,-3.2 6.76,-5.6 1.76,-2.39 3.06,-5.25 3.88,-8.56 0.83,-3.32 1.25,-6.970002 1.25,-10.950002 z m 68.86,29.420002 c 0,1.51 -0.11,2.71 -0.31,3.59 -0.21,0.88 -0.53,1.53 -0.94,1.94 -0.42,0.42 -1.04,0.81 -1.88,1.17 -0.82,0.37 -1.76,0.67 -2.82,0.89 -1.06,0.24 -2.18,0.44 -3.38,0.6 -1.19,0.15 -2.37,0.23 -3.56,0.23 -3.63,0 -6.74,-0.48 -9.33,-1.42 -2.59,-0.96 -4.7,-2.4 -6.36,-4.33 -1.66,-1.94 -2.86,-4.38 -3.61,-7.34 -0.75,-2.97 -1.12,-6.46 -1.12,-10.49 0,0 0,-40.670002 0,-40.670002 0,0 -9.79,0 -9.79,0 -0.78,0 -1.4,-0.41 -1.87,-1.25 -0.46,-0.84 -0.69,-2.2 -0.69,-4.08 0,-1 0.06,-1.83 0.19,-2.51 0.13,-0.68 0.3,-1.24 0.52,-1.69 0.2,-0.45 0.47,-0.76 0.81,-0.94 0.33,-0.19 0.71,-0.28 1.12,-0.28 0,0 9.71,0 9.71,0 0,0 0,-16.53 0,-16.53 0,-0.35 0.08,-0.69 0.26,-1 0.19,-0.31 0.53,-0.58 1.02,-0.81 0.49,-0.23 1.14,-0.4 1.97,-0.5 0.83,-0.11 1.86,-0.16 3.11,-0.16 1.3,0 2.36,0.05 3.18,0.16 0.84,0.1 1.48,0.27 1.94,0.5 0.47,0.23 0.81,0.5 1.02,0.81 0.2,0.31 0.31,0.65 0.31,1 0,0 0,16.53 0,16.53 0,0 17.94,0 17.94,0 0.4,0 0.76,0.09 1.07,0.28 0.32,0.18 0.59,0.49 0.82,0.94 0.24,0.45 0.41,1.01 0.51,1.69 0.1,0.68 0.16,1.51 0.16,2.51 0,1.88 -0.24,3.24 -0.7,4.08 -0.47,0.84 -1.09,1.25 -1.86,1.25 0,0 -17.94,0 -17.94,0 0,0 0,38.730002 0,38.730002 0,4.8 0.71,8.42 2.12,10.86 1.43,2.44 3.98,3.66 7.66,3.66 1.19,0 2.24,-0.11 3.17,-0.34 0.94,-0.24 1.77,-0.49 2.49,-0.75 0.72,-0.26 1.35,-0.51 1.87,-0.74 0.52,-0.22 0.99,-0.34 1.39,-0.34 0.26,0 0.51,0.07 0.74,0.2 0.23,0.13 0.42,0.37 0.54,0.74 0.14,0.35 0.26,0.84 0.36,1.46 0.1,0.63 0.16,1.41 0.16,2.35 z m 74.28,-32.170002 c 0,2.02 -0.51,3.46 -1.52,4.31 -1.01,0.85 -2.16,1.28 -3.45,1.28 0,0 -45.8,0 -45.8,0 0,3.750002 0.39,7.120002 1.16,10.120002 0.78,3 2.08,5.56 3.89,7.71 1.81,2.15 4.17,3.79 7.06,4.95 2.9,1.15 6.45,1.72 10.64,1.72 3.32,0 6.26,-0.25 8.85,-0.77 2.58,-0.52 4.81,-1.09 6.7,-1.73 1.9,-0.63 3.45,-1.21 4.67,-1.72 1.22,-0.52 2.14,-0.78 2.75,-0.78 0.37,0 0.69,0.09 0.97,0.28 0.29,0.18 0.52,0.45 0.67,0.81 0.16,0.37 0.27,0.88 0.35,1.53 0.07,0.66 0.11,1.46 0.11,2.4 0,0.68 -0.03,1.26 -0.08,1.76 -0.06,0.49 -0.12,0.93 -0.19,1.33 -0.07,0.4 -0.2,0.75 -0.39,1.06 -0.18,0.31 -0.41,0.62 -0.7,0.91 -0.28,0.28 -1.12,0.73 -2.52,1.34 -1.4,0.62 -3.21,1.22 -5.44,1.81 -2.21,0.59 -4.79,1.11 -7.71,1.57 -2.93,0.47 -6.05,0.7 -9.36,0.7 -5.75,0 -10.78,-0.79 -15.1,-2.38 -4.32,-1.59 -7.96,-3.95 -10.92,-7.07 -2.95,-3.13 -5.17,-7.04 -6.67,-11.75 -1.5,-4.72 -2.25,-10.21 -2.25,-16.460002 0,-5.93 0.77,-11.27 2.33,-16.01 1.55,-4.74 3.79,-8.76 6.72,-12.06 2.92,-3.32 6.45,-5.85 10.59,-7.61 4.14,-1.77 8.78,-2.66 13.91,-2.66 5.47,0 10.14,0.88 14,2.64 3.86,1.76 7.03,4.13 9.51,7.11 2.49,2.97 4.31,6.46 5.47,10.48 1.16,4.02 1.75,8.3 1.75,12.85 0,0 0,2.33 0,2.33 z m -12.89,-3.91 c 0.16,-6.7 -1.34,-11.95 -4.47,-15.77 -3.12,-3.82 -7.76,-5.73 -13.92,-5.73 -3.16,0 -5.93,0.59 -8.31,1.78 -2.38,1.19 -4.37,2.76 -5.97,4.72 -1.61,1.96 -2.85,4.24 -3.74,6.84 -0.87,2.61 -1.36,5.33 -1.47,8.16 0,0 37.88,0 37.88,0 z m -415.3,175.250002 c 0,4.65 -0.87,8.78 -2.61,12.41 -1.73,3.62 -4.13,6.7 -7.22,9.23 -3.07,2.52 -6.69,4.42 -10.86,5.7 -4.16,1.27 -8.65,1.91 -13.46,1.91 -3.37,0 -6.49,-0.29 -9.36,-0.86 -2.88,-0.57 -5.44,-1.27 -7.69,-2.11 -2.25,-0.83 -4.14,-1.69 -5.67,-2.58 -1.53,-0.88 -2.59,-1.64 -3.19,-2.26 -0.59,-0.63 -1.03,-1.42 -1.31,-2.38 -0.28,-0.97 -0.42,-2.26 -0.42,-3.87 0,-1.15 0.05,-2.1 0.15,-2.85 0.1,-0.75 0.26,-1.37 0.45,-1.84 0.21,-0.47 0.47,-0.79 0.79,-0.97 0.31,-0.19 0.67,-0.28 1.09,-0.28 0.72,0 1.74,0.45 3.06,1.33 1.32,0.88 3.02,1.85 5.08,2.89 2.07,1.03 4.57,2.01 7.5,2.92 2.93,0.91 6.3,1.36 10.13,1.36 2.9,0 5.56,-0.38 7.96,-1.12 2.41,-0.76 4.48,-1.83 6.21,-3.21 1.74,-1.38 3.07,-3.08 4,-5.09 0.94,-2.02 1.4,-4.31 1.4,-6.88 0,-2.81 -0.65,-5.21 -1.95,-7.2 -1.29,-1.99 -3,-3.73 -5.12,-5.23 -2.12,-1.51 -4.54,-2.89 -7.25,-4.15 -2.72,-1.24 -5.51,-2.52 -8.36,-3.82 -2.85,-1.3 -5.61,-2.75 -8.3,-4.33 -2.69,-1.58 -5.09,-3.45 -7.22,-5.59 -2.12,-2.15 -3.85,-4.66 -5.17,-7.54 -1.31,-2.88 -1.97,-6.34 -1.97,-10.39 0,-4.13 0.76,-7.82 2.28,-11.06 1.53,-3.24 3.66,-5.95 6.38,-8.14 2.72,-2.2 5.95,-3.87 9.7,-5.02 3.75,-1.15 7.8,-1.73 12.16,-1.73 2.21,0 4.45,0.19 6.7,0.56 2.25,0.38 4.37,0.88 6.36,1.5 2,0.63 3.77,1.33 5.33,2.11 1.55,0.78 2.57,1.4 3.06,1.88 0.5,0.47 0.82,0.85 0.97,1.14 0.15,0.28 0.28,0.64 0.39,1.08 0.1,0.43 0.18,0.96 0.23,1.59 0.05,0.62 0.08,1.42 0.08,2.41 0,0.93 -0.04,1.75 -0.12,2.48 -0.08,0.72 -0.19,1.32 -0.35,1.81 -0.15,0.49 -0.37,0.86 -0.65,1.1 -0.29,0.23 -0.61,0.34 -0.97,0.34 -0.58,0 -1.47,-0.35 -2.69,-1.06 -1.21,-0.71 -2.7,-1.51 -4.45,-2.39 -1.77,-0.9 -3.85,-1.71 -6.25,-2.44 -2.41,-0.74 -5.11,-1.11 -8.11,-1.11 -2.81,0 -5.25,0.37 -7.32,1.11 -2.06,0.74 -3.76,1.72 -5.11,2.94 -1.34,1.22 -2.35,2.66 -3.03,4.34 -0.68,1.68 -1.01,3.46 -1.01,5.34 0,2.77 0.64,5.14 1.94,7.13 1.3,1.99 3.02,3.75 5.17,5.28 2.14,1.53 4.58,2.94 7.33,4.22 2.75,1.27 5.54,2.56 8.39,3.86 2.84,1.3 5.63,2.73 8.37,4.3 2.75,1.55 5.2,3.39 7.34,5.51 2.16,2.12 3.9,4.62 5.21,7.5 1.32,2.88 1.98,6.28 1.98,10.22 z m 77.19,-11.34 c 0,2.02 -0.51,3.46 -1.52,4.31 -1.01,0.85 -2.16,1.28 -3.45,1.28 0,0 -45.8,0 -45.8,0 0,3.75 0.39,7.12 1.16,10.12 0.78,3 2.08,5.56 3.89,7.71 1.81,2.15 4.17,3.79 7.06,4.95 2.9,1.15 6.45,1.72 10.64,1.72 3.32,0 6.26,-0.25 8.85,-0.77 2.58,-0.52 4.81,-1.09 6.7,-1.73 1.9,-0.63 3.45,-1.21 4.67,-1.72 1.22,-0.52 2.14,-0.78 2.75,-0.78 0.37,0 0.69,0.09 0.97,0.28 0.29,0.18 0.52,0.45 0.67,0.81 0.16,0.37 0.27,0.88 0.35,1.53 0.07,0.66 0.11,1.46 0.11,2.4 0,0.68 -0.03,1.26 -0.08,1.76 -0.06,0.49 -0.12,0.93 -0.19,1.33 -0.07,0.4 -0.2,0.75 -0.39,1.06 -0.18,0.31 -0.41,0.62 -0.7,0.91 -0.28,0.28 -1.12,0.73 -2.52,1.34 -1.4,0.62 -3.21,1.22 -5.44,1.81 -2.21,0.59 -4.79,1.11 -7.71,1.57 -2.93,0.47 -6.05,0.7 -9.36,0.7 -5.75,0 -10.78,-0.79 -15.1,-2.38 -4.32,-1.59 -7.96,-3.95 -10.92,-7.07 -2.95,-3.13 -5.17,-7.04 -6.67,-11.75 -1.5,-4.72 -2.25,-10.21 -2.25,-16.46 0,-5.93 0.77,-11.27 2.33,-16.01 1.55,-4.74 3.79,-8.76 6.72,-12.06 2.92,-3.32 6.45,-5.85 10.59,-7.61 4.14,-1.77 8.78,-2.66 13.91,-2.66 5.47,0 10.14,0.88 14,2.64 3.86,1.76 7.03,4.13 9.51,7.11 2.49,2.97 4.31,6.46 5.47,10.48 1.16,4.02 1.75,8.3 1.75,12.85 0,0 0,2.33 0,2.33 z m -12.89,-3.91 c 0.16,-6.7 -1.34,-11.95 -4.47,-15.77 -3.12,-3.82 -7.76,-5.73 -13.92,-5.73 -3.16,0 -5.93,0.59 -8.31,1.78 -2.38,1.19 -4.37,2.76 -5.97,4.72 -1.61,1.96 -2.85,4.24 -3.74,6.84 -0.87,2.61 -1.36,5.33 -1.47,8.16 0,0 37.88,0 37.88,0 z m 92.44,41.12 c 0,0.41 -0.11,0.76 -0.32,1.04 -0.21,0.28 -0.54,0.52 -1.01,0.73 -0.46,0.2 -1.11,0.35 -1.94,0.45 -0.82,0.11 -1.85,0.16 -3.09,0.16 -1.31,0 -2.37,-0.05 -3.21,-0.16 -0.82,-0.1 -1.46,-0.25 -1.93,-0.45 -0.46,-0.21 -0.8,-0.45 -1,-0.73 -0.21,-0.28 -0.32,-0.63 -0.32,-1.04 0,0 0,-40.5 0,-40.5 0,-3.93 -0.31,-7.1 -0.93,-9.51 -0.62,-2.41 -1.53,-4.49 -2.72,-6.23 -1.19,-1.74 -2.73,-3.07 -4.61,-3.99 -1.89,-0.93 -4.08,-1.39 -6.56,-1.39 -3.21,0 -6.42,1.13 -9.63,3.39 -3.21,2.25 -6.57,5.56 -10.09,9.91 0,0 0,48.32 0,48.32 0,0.41 -0.11,0.76 -0.31,1.04 -0.22,0.28 -0.55,0.52 -1.02,0.73 -0.46,0.2 -1.11,0.35 -1.94,0.45 -0.82,0.11 -1.88,0.16 -3.17,0.16 -1.25,0 -2.29,-0.05 -3.13,-0.16 -0.82,-0.1 -1.48,-0.25 -1.96,-0.45 -0.5,-0.21 -0.83,-0.45 -1.02,-0.73 -0.18,-0.28 -0.26,-0.63 -0.26,-1.05 0,0 0,-69.22 0,-69.22 0,-0.41 0.07,-0.77 0.23,-1.05 0.16,-0.28 0.46,-0.53 0.92,-0.76 0.47,-0.23 1.07,-0.38 1.8,-0.46 0.72,-0.08 1.69,-0.12 2.87,-0.12 1.14,0 2.08,0.04 2.83,0.12 0.75,0.08 1.33,0.23 1.75,0.46 0.42,0.23 0.71,0.48 0.89,0.76 0.19,0.28 0.28,0.64 0.28,1.05 0,0 0,9.14 0,9.14 3.93,-4.33 7.85,-7.5 11.75,-9.51 3.91,-2.01 7.85,-3.02 11.85,-3.02 4.65,0 8.57,0.78 11.75,2.34 3.18,1.57 5.76,3.66 7.73,6.27 1.97,2.62 3.38,5.68 4.24,9.19 0.85,3.5 1.28,7.71 1.28,12.64 0,0 0,42.18 0,42.18 z m 67.7,-18.82 c 0,3.53 -0.66,6.68 -1.98,9.45 -1.33,2.76 -3.21,5.09 -5.65,6.98 -2.42,1.9 -5.32,3.34 -8.68,4.32 -3.37,0.97 -7.06,1.45 -11.1,1.45 -2.49,0 -4.86,-0.2 -7.11,-0.59 -2.25,-0.39 -4.27,-0.88 -6.06,-1.47 -1.78,-0.6 -3.29,-1.24 -4.55,-1.89 -1.24,-0.66 -2.14,-1.25 -2.71,-1.77 -0.57,-0.52 -0.98,-1.24 -1.24,-2.17 -0.26,-0.94 -0.39,-2.21 -0.39,-3.83 0,-0.98 0.05,-1.8 0.16,-2.48 0.1,-0.68 0.23,-1.22 0.39,-1.63 0.15,-0.41 0.37,-0.71 0.65,-0.89 0.29,-0.19 0.62,-0.28 0.99,-0.28 0.56,0 1.4,0.36 2.51,1.06 1.12,0.71 2.49,1.48 4.11,2.32 1.64,0.83 3.57,1.6 5.79,2.31 2.22,0.71 4.79,1.06 7.7,1.06 2.16,0 4.13,-0.23 5.89,-0.69 1.76,-0.45 3.28,-1.13 4.58,-2.01 1.3,-0.89 2.3,-2.01 3,-3.38 0.69,-1.37 1.04,-3 1.04,-4.87 0,-1.95 -0.5,-3.59 -1.51,-4.92 -1.01,-1.34 -2.35,-2.51 -4,-3.54 -1.66,-1.02 -3.53,-1.92 -5.6,-2.72 -2.07,-0.8 -4.21,-1.63 -6.4,-2.5 -2.2,-0.87 -4.35,-1.86 -6.44,-2.96 -2.09,-1.11 -3.97,-2.45 -5.62,-4.04 -1.66,-1.59 -3,-3.48 -4,-5.68 -1.02,-2.21 -1.52,-4.85 -1.52,-7.92 0,-2.71 0.53,-5.31 1.59,-7.8 1.07,-2.49 2.65,-4.67 4.77,-6.53 2.12,-1.88 4.77,-3.38 7.95,-4.5 3.19,-1.13 6.91,-1.69 11.16,-1.69 1.85,0 3.71,0.15 5.58,0.45 1.86,0.3 3.54,0.67 5.04,1.11 1.5,0.45 2.79,0.94 3.85,1.47 1.06,0.52 1.86,0.98 2.4,1.38 0.54,0.39 0.9,0.75 1.08,1.06 0.19,0.3 0.32,0.65 0.39,1.03 0.08,0.39 0.16,0.86 0.24,1.42 0.08,0.56 0.12,1.26 0.12,2.08 0,0.88 -0.04,1.64 -0.12,2.28 -0.08,0.64 -0.21,1.17 -0.39,1.58 -0.18,0.41 -0.4,0.7 -0.66,0.87 -0.25,0.18 -0.53,0.27 -0.84,0.27 -0.47,0 -1.15,-0.27 -2.04,-0.8 -0.87,-0.53 -2.01,-1.09 -3.4,-1.7 -1.4,-0.6 -3.04,-1.17 -4.94,-1.7 -1.89,-0.53 -4.04,-0.8 -6.47,-0.8 -2.18,0 -4.09,0.24 -5.75,0.72 -1.65,0.48 -3.01,1.16 -4.08,2.05 -1.06,0.87 -1.86,1.92 -2.4,3.14 -0.54,1.21 -0.81,2.51 -0.81,3.92 0,2 0.51,3.68 1.54,5.03 1.04,1.35 2.39,2.55 4.05,3.58 1.66,1.02 3.54,1.94 5.66,2.76 2.12,0.83 4.28,1.68 6.48,2.55 2.2,0.87 4.37,1.84 6.52,2.91 2.15,1.07 4.06,2.38 5.71,3.92 1.66,1.53 2.99,3.37 4,5.53 1.01,2.15 1.52,4.71 1.52,7.69 z m 30.94,18.81 c 0,0.42 -0.11,0.77 -0.31,1.05 -0.22,0.28 -0.55,0.52 -1.02,0.73 -0.46,0.2 -1.11,0.35 -1.94,0.45 -0.82,0.11 -1.88,0.16 -3.17,0.16 -1.25,0 -2.29,-0.05 -3.13,-0.16 -0.82,-0.1 -1.48,-0.25 -1.96,-0.45 -0.5,-0.21 -0.83,-0.45 -1.02,-0.73 -0.18,-0.28 -0.26,-0.63 -0.26,-1.05 0,0 0,-69.22 0,-69.22 0,-0.36 0.08,-0.69 0.26,-1 0.19,-0.31 0.52,-0.57 1.02,-0.77 0.48,-0.2 1.14,-0.36 1.96,-0.46 0.84,-0.11 1.88,-0.16 3.13,-0.16 1.29,0 2.35,0.05 3.17,0.16 0.83,0.1 1.48,0.26 1.94,0.46 0.47,0.2 0.8,0.46 1.02,0.77 0.2,0.31 0.31,0.64 0.31,1 0,0 0,69.22 0,69.22 z m 1.47,-92.44 c 0,3.03 -0.57,5.1 -1.71,6.19 -1.13,1.09 -3.23,1.64 -6.28,1.64 -3,0 -5.06,-0.53 -6.17,-1.59 -1.12,-1.07 -1.67,-3.1 -1.67,-6.08 0,-3.03 0.56,-5.1 1.7,-6.19 1.13,-1.09 3.24,-1.64 6.3,-1.64 3,0 5.05,0.54 6.15,1.61 1.12,1.06 1.68,3.09 1.68,6.06 z m 81.89,92.45 c 0,0.41 -0.11,0.76 -0.32,1.04 -0.21,0.28 -0.54,0.52 -1.01,0.73 -0.46,0.2 -1.11,0.35 -1.94,0.45 -0.82,0.11 -1.85,0.16 -3.09,0.16 -1.31,0 -2.37,-0.05 -3.21,-0.16 -0.82,-0.1 -1.46,-0.25 -1.93,-0.45 -0.46,-0.21 -0.8,-0.45 -1,-0.73 -0.21,-0.28 -0.32,-0.63 -0.32,-1.04 0,0 0,-40.5 0,-40.5 0,-3.93 -0.31,-7.1 -0.93,-9.51 -0.62,-2.41 -1.53,-4.49 -2.72,-6.23 -1.19,-1.74 -2.73,-3.07 -4.61,-3.99 -1.89,-0.93 -4.08,-1.39 -6.56,-1.39 -3.21,0 -6.42,1.13 -9.63,3.39 -3.21,2.25 -6.57,5.56 -10.09,9.91 0,0 0,48.32 0,48.32 0,0.41 -0.11,0.76 -0.31,1.04 -0.22,0.28 -0.55,0.52 -1.02,0.73 -0.46,0.2 -1.11,0.35 -1.94,0.45 -0.82,0.11 -1.88,0.16 -3.17,0.16 -1.25,0 -2.29,-0.05 -3.13,-0.16 -0.82,-0.1 -1.48,-0.25 -1.96,-0.45 -0.5,-0.21 -0.83,-0.45 -1.02,-0.73 -0.18,-0.28 -0.26,-0.63 -0.26,-1.05 0,0 0,-69.22 0,-69.22 0,-0.41 0.07,-0.77 0.23,-1.05 0.16,-0.28 0.46,-0.53 0.92,-0.76 0.47,-0.23 1.07,-0.38 1.8,-0.46 0.72,-0.08 1.69,-0.12 2.87,-0.12 1.14,0 2.08,0.04 2.83,0.12 0.75,0.08 1.33,0.23 1.75,0.46 0.42,0.23 0.71,0.48 0.89,0.76 0.19,0.28 0.28,0.64 0.28,1.05 0,0 0,9.14 0,9.14 3.93,-4.33 7.85,-7.5 11.75,-9.51 3.91,-2.01 7.85,-3.02 11.85,-3.02 4.65,0 8.57,0.78 11.75,2.34 3.18,1.57 5.76,3.66 7.73,6.27 1.97,2.62 3.38,5.68 4.24,9.19 0.85,3.5 1.28,7.71 1.28,12.64 0,0 0,42.18 0,42.18 z m 82.22,-66.46 c 0,1.8 -0.25,3.1 -0.75,3.9 -0.5,0.8 -1.13,1.19 -1.9,1.19 0,0 -10.01,0 -10.01,0 1.81,1.92 3.08,4.03 3.8,6.34 0.72,2.32 1.09,4.72 1.09,7.22 0,4.03 -0.65,7.6 -1.95,10.71 -1.3,3.09 -3.14,5.71 -5.55,7.86 -2.41,2.14 -5.27,3.78 -8.58,4.92 -3.31,1.13 -6.98,1.7 -11.01,1.7 -2.86,0 -5.57,-0.38 -8.13,-1.12 -2.55,-0.76 -4.53,-1.7 -5.94,-2.83 -0.93,0.95 -1.68,2.02 -2.28,3.23 -0.59,1.21 -0.89,2.6 -0.89,4.17 0,1.85 0.84,3.37 2.52,4.58 1.69,1.21 3.92,1.87 6.72,1.97 0,0 18.25,0.77 18.25,0.77 3.46,0.1 6.64,0.57 9.54,1.42 2.9,0.83 5.4,2.03 7.52,3.59 2.12,1.56 3.78,3.47 4.97,5.74 1.19,2.27 1.79,4.91 1.79,7.92 0,3.15 -0.67,6.16 -2.01,9.01 -1.35,2.87 -3.4,5.38 -6.17,7.55 -2.78,2.16 -6.31,3.88 -10.61,5.12 -4.3,1.26 -9.36,1.88 -15.21,1.88 -5.64,0 -10.44,-0.48 -14.4,-1.44 -3.96,-0.95 -7.21,-2.24 -9.75,-3.89 -2.53,-1.65 -4.37,-3.62 -5.52,-5.9 -1.13,-2.3 -1.7,-4.79 -1.7,-7.47 0,-1.7 0.21,-3.35 0.62,-4.94 0.42,-1.59 1.06,-3.11 1.91,-4.55 0.85,-1.44 1.91,-2.83 3.17,-4.14 1.27,-1.31 2.74,-2.61 4.39,-3.9 -2.53,-1.29 -4.4,-2.9 -5.62,-4.85 -1.22,-1.94 -1.83,-4.04 -1.83,-6.3 0,-3.13 0.64,-5.92 1.94,-8.39 1.3,-2.45 2.91,-4.66 4.83,-6.61 -1.61,-1.91 -2.88,-4.07 -3.82,-6.46 -0.93,-2.41 -1.39,-5.32 -1.39,-8.74 0,-3.97 0.67,-7.54 2.02,-10.69 1.34,-3.15 3.2,-5.81 5.58,-7.98 2.38,-2.18 5.24,-3.84 8.57,-5 3.35,-1.16 6.99,-1.75 10.93,-1.75 2.11,0 4.08,0.09 5.92,0.27 1.84,0.18 3.56,0.42 5.17,0.73 0,0 21.12,0 21.12,0 0.88,0 1.54,0.43 1.97,1.28 0.45,0.84 0.68,2.14 0.68,3.88 z m -20.04,18.76 c 0,-4.77 -1.3,-8.49 -3.92,-11.15 -2.61,-2.68 -6.33,-4.02 -11.14,-4.02 -2.49,0 -4.65,0.42 -6.48,1.25 -1.84,0.82 -3.36,1.96 -4.58,3.42 -1.22,1.45 -2.13,3.12 -2.72,5.02 -0.59,1.9 -0.89,3.88 -0.89,5.95 0,4.62 1.3,8.25 3.92,10.89 2.62,2.65 6.28,3.97 10.99,3.97 2.53,0 4.72,-0.4 6.59,-1.2 1.86,-0.8 3.41,-1.92 4.62,-3.35 1.22,-1.42 2.13,-3.07 2.72,-4.93 0.6,-1.88 0.89,-3.82 0.89,-5.85 z m 6.44,55.24 c 0,-2.93 -1.23,-5.18 -3.69,-6.77 -2.46,-1.59 -5.78,-2.44 -9.96,-2.53 0,0 -18.1,-0.61 -18.1,-0.61 -1.65,1.26 -3.01,2.46 -4.08,3.59 -1.06,1.14 -1.9,2.22 -2.53,3.25 -0.61,1.03 -1.04,2.05 -1.28,3.07 -0.23,1 -0.34,2.04 -0.34,3.11 0,3.28 1.7,5.76 5.12,7.45 3.42,1.69 8.18,2.53 14.28,2.53 3.89,0 7.14,-0.37 9.75,-1.09 2.62,-0.73 4.73,-1.71 6.33,-2.93 1.6,-1.21 2.76,-2.59 3.45,-4.15 0.7,-1.56 1.05,-3.2 1.05,-4.92 z m -377.15,103.68 c 0,8.03 -0.97,15.25 -2.88,21.69 -1.92,6.43 -4.78,11.9 -8.58,16.42 -3.8,4.51 -8.58,7.98 -14.33,10.41 -5.74,2.43 -12.44,3.64 -20.11,3.64 -7.55,0 -14.08,-1.11 -19.6,-3.33 -5.52,-2.22 -10.07,-5.44 -13.66,-9.69 -3.59,-4.23 -6.27,-9.5 -8.03,-15.78 -1.76,-6.28 -2.64,-13.5 -2.64,-21.67 0,-7.81 0.95,-14.91 2.87,-21.28 1.92,-6.38 4.79,-11.8 8.61,-16.27 3.83,-4.46 8.62,-7.91 14.36,-10.34 5.75,-2.43 12.45,-3.64 20.11,-3.64 7.41,0 13.85,1.1 19.33,3.3 5.49,2.18 10.05,5.39 13.7,9.61 3.66,4.21 6.38,9.41 8.16,15.62 1.79,6.2 2.69,13.31 2.69,21.31 z m -14.07,1 c 0,-5.59 -0.5,-10.79 -1.51,-15.59 -1,-4.8 -2.69,-8.97 -5.05,-12.5 -2.35,-3.53 -5.5,-6.29 -9.44,-8.27 -3.93,-1.98 -8.79,-2.98 -14.57,-2.98 -5.81,0 -10.68,1.07 -14.61,3.2 -3.93,2.14 -7.13,4.99 -9.58,8.55 -2.46,3.55 -4.22,7.71 -5.28,12.47 -1.07,4.75 -1.6,9.74 -1.6,14.97 0,5.8 0.49,11.15 1.47,16.03 0.99,4.87 2.65,9.08 4.97,12.61 2.33,3.53 5.45,6.28 9.36,8.23 3.91,1.96 8.82,2.94 14.72,2.94 5.84,0 10.76,-1.07 14.75,-3.2 3.99,-2.14 7.19,-5.02 9.62,-8.66 2.44,-3.63 4.18,-7.84 5.21,-12.61 1.03,-4.78 1.54,-9.84 1.54,-15.19 z m 77.3,28.96 c 0,3.53 -0.66,6.68 -1.98,9.45 -1.33,2.76 -3.21,5.09 -5.65,6.98 -2.42,1.9 -5.32,3.34 -8.68,4.32 -3.37,0.97 -7.06,1.45 -11.1,1.45 -2.49,0 -4.86,-0.2 -7.11,-0.59 -2.25,-0.39 -4.27,-0.88 -6.06,-1.47 -1.78,-0.6 -3.29,-1.24 -4.55,-1.89 -1.24,-0.66 -2.14,-1.25 -2.71,-1.77 -0.57,-0.52 -0.98,-1.24 -1.24,-2.17 -0.26,-0.94 -0.39,-2.21 -0.39,-3.83 0,-0.98 0.05,-1.8 0.16,-2.48 0.1,-0.68 0.23,-1.22 0.39,-1.63 0.15,-0.41 0.37,-0.71 0.65,-0.89 0.29,-0.19 0.62,-0.28 0.99,-0.28 0.56,0 1.4,0.36 2.51,1.06 1.12,0.71 2.49,1.48 4.11,2.32 1.64,0.83 3.57,1.6 5.79,2.31 2.22,0.71 4.79,1.06 7.7,1.06 2.16,0 4.13,-0.23 5.89,-0.69 1.76,-0.45 3.28,-1.13 4.58,-2.01 1.3,-0.89 2.3,-2.01 3,-3.38 0.69,-1.37 1.04,-3 1.04,-4.87 0,-1.95 -0.5,-3.59 -1.51,-4.92 -1.01,-1.34 -2.35,-2.51 -4,-3.54 -1.66,-1.02 -3.53,-1.92 -5.6,-2.72 -2.07,-0.8 -4.21,-1.63 -6.4,-2.5 -2.2,-0.87 -4.35,-1.86 -6.44,-2.96 -2.09,-1.11 -3.97,-2.45 -5.62,-4.04 -1.66,-1.59 -3,-3.48 -4,-5.68 -1.02,-2.21 -1.52,-4.85 -1.52,-7.92 0,-2.71 0.53,-5.31 1.59,-7.8 1.07,-2.49 2.65,-4.67 4.77,-6.53 2.12,-1.88 4.77,-3.38 7.95,-4.5 3.19,-1.13 6.91,-1.69 11.16,-1.69 1.85,0 3.71,0.15 5.58,0.45 1.86,0.3 3.54,0.67 5.04,1.11 1.5,0.45 2.79,0.94 3.85,1.47 1.06,0.52 1.86,0.98 2.4,1.38 0.54,0.39 0.9,0.75 1.08,1.06 0.19,0.3 0.32,0.65 0.39,1.03 0.08,0.39 0.16,0.86 0.24,1.42 0.08,0.56 0.12,1.26 0.12,2.08 0,0.88 -0.04,1.64 -0.12,2.28 -0.08,0.64 -0.21,1.17 -0.39,1.58 -0.18,0.41 -0.4,0.7 -0.66,0.87 -0.25,0.18 -0.53,0.27 -0.84,0.27 -0.47,0 -1.15,-0.27 -2.04,-0.8 -0.87,-0.53 -2.01,-1.09 -3.4,-1.7 -1.4,-0.6 -3.04,-1.17 -4.94,-1.7 -1.89,-0.53 -4.04,-0.8 -6.47,-0.8 -2.18,0 -4.09,0.24 -5.75,0.72 -1.65,0.48 -3.01,1.16 -4.08,2.05 -1.06,0.87 -1.86,1.92 -2.4,3.14 -0.54,1.21 -0.81,2.51 -0.81,3.92 0,2 0.51,3.68 1.54,5.03 1.04,1.35 2.39,2.55 4.05,3.58 1.66,1.02 3.54,1.94 5.66,2.76 2.12,0.83 4.28,1.68 6.48,2.55 2.2,0.87 4.37,1.84 6.52,2.91 2.15,1.07 4.06,2.38 5.71,3.92 1.66,1.53 2.99,3.37 4,5.53 1.01,2.15 1.52,4.71 1.52,7.69 z m 78.3,18.82 c 0,0.41 -0.11,0.76 -0.32,1.04 -0.21,0.28 -0.54,0.52 -1.01,0.73 -0.46,0.2 -1.11,0.35 -1.94,0.45 -0.82,0.11 -1.85,0.16 -3.09,0.16 -1.31,0 -2.37,-0.05 -3.21,-0.16 -0.82,-0.1 -1.46,-0.25 -1.93,-0.45 -0.46,-0.21 -0.8,-0.45 -1,-0.73 -0.21,-0.28 -0.32,-0.63 -0.32,-1.04 0,0 0,-40.5 0,-40.5 0,-3.93 -0.31,-7.1 -0.93,-9.51 -0.62,-2.41 -1.53,-4.49 -2.72,-6.23 -1.19,-1.74 -2.73,-3.07 -4.61,-3.99 -1.89,-0.93 -4.08,-1.39 -6.56,-1.39 -3.21,0 -6.42,1.13 -9.63,3.39 -3.21,2.25 -6.57,5.56 -10.09,9.91 0,0 0,48.32 0,48.32 0,0.41 -0.11,0.76 -0.31,1.04 -0.22,0.28 -0.55,0.52 -1.02,0.73 -0.46,0.2 -1.11,0.35 -1.94,0.45 -0.82,0.11 -1.88,0.16 -3.17,0.16 -1.25,0 -2.29,-0.05 -3.13,-0.16 -0.82,-0.1 -1.48,-0.25 -1.96,-0.45 -0.5,-0.21 -0.83,-0.45 -1.02,-0.73 -0.18,-0.28 -0.26,-0.63 -0.26,-1.05 0,0 0,-69.22 0,-69.22 0,-0.41 0.07,-0.77 0.23,-1.05 0.16,-0.28 0.46,-0.53 0.92,-0.76 0.47,-0.23 1.07,-0.38 1.8,-0.46 0.72,-0.08 1.69,-0.12 2.87,-0.12 1.14,0 2.08,0.04 2.83,0.12 0.75,0.08 1.33,0.23 1.75,0.46 0.42,0.23 0.71,0.48 0.89,0.76 0.19,0.28 0.28,0.64 0.28,1.05 0,0 0,9.14 0,9.14 3.93,-4.33 7.85,-7.5 11.75,-9.51 3.91,-2.01 7.85,-3.02 11.85,-3.02 4.65,0 8.57,0.78 11.75,2.34 3.18,1.57 5.76,3.66 7.73,6.27 1.97,2.62 3.38,5.68 4.24,9.19 0.85,3.5 1.28,7.71 1.28,12.64 0,0 0,42.18 0,42.18 z m 76.47,0.07 c 0,0.61 -0.22,1.08 -0.63,1.39 -0.41,0.3 -0.98,0.53 -1.7,0.69 -0.73,0.15 -1.8,0.23 -3.19,0.23 -1.34,0 -2.42,-0.08 -3.22,-0.23 -0.8,-0.16 -1.39,-0.39 -1.75,-0.71 -0.37,-0.31 -0.55,-0.77 -0.55,-1.39 0,0 0,-6.98 0,-6.98 -3.05,3.26 -6.45,5.79 -10.2,7.61 -3.75,1.8 -7.73,2.7 -11.92,2.7 -3.67,0 -6.99,-0.48 -9.97,-1.42 -2.98,-0.96 -5.51,-2.34 -7.61,-4.14 -2.09,-1.8 -3.73,-4.02 -4.89,-6.64 -1.17,-2.63 -1.75,-5.61 -1.75,-8.96 0,-3.91 0.8,-7.31 2.41,-10.18 1.6,-2.89 3.9,-5.28 6.9,-7.19 3.01,-1.91 6.69,-3.33 11.03,-4.28 4.35,-0.96 9.24,-1.44 14.68,-1.44 0,0 9.62,0 9.62,0 0,0 0,-5.28 0,-5.28 0,-2.6 -0.29,-4.91 -0.86,-6.92 -0.56,-2.01 -1.48,-3.68 -2.75,-5.02 -1.27,-1.33 -2.92,-2.33 -4.94,-3.01 -2.01,-0.68 -4.49,-1.02 -7.43,-1.02 -3.16,0 -6,0.34 -8.5,1.02 -2.51,0.68 -4.72,1.42 -6.61,2.23 -1.89,0.81 -3.47,1.56 -4.74,2.23 -1.27,0.68 -2.21,1.02 -2.83,1.02 -0.41,0 -0.78,-0.1 -1.09,-0.31 -0.31,-0.21 -0.58,-0.52 -0.81,-0.94 -0.23,-0.41 -0.4,-0.95 -0.5,-1.59 -0.11,-0.66 -0.16,-1.38 -0.16,-2.16 0,-1.3 0.09,-2.33 0.27,-3.08 0.19,-0.76 0.63,-1.47 1.33,-2.15 0.69,-0.68 1.89,-1.42 3.61,-2.22 1.7,-0.82 3.67,-1.55 5.89,-2.22 2.22,-0.68 4.66,-1.24 7.29,-1.67 2.65,-0.44 5.32,-0.66 8,-0.66 5.02,0 9.29,0.56 12.82,1.69 3.52,1.12 6.36,2.77 8.53,4.95 2.17,2.18 3.75,4.88 4.73,8.11 0.99,3.23 1.49,7 1.49,11.3 0,0 0,46.64 0,46.64 z m -12.74,-31.69 c 0,0 -10.94,0 -10.94,0 -3.52,0 -6.57,0.3 -9.17,0.89 -2.58,0.59 -4.73,1.45 -6.44,2.61 -1.71,1.16 -2.96,2.54 -3.76,4.16 -0.81,1.61 -1.2,3.47 -1.2,5.57 0,3.59 1.14,6.45 3.45,8.58 2.3,2.13 5.52,3.19 9.67,3.19 3.36,0 6.48,-0.84 9.34,-2.53 2.88,-1.7 5.89,-4.29 9.05,-7.78 0,0 0,-14.69 0,-14.69 z m 100.38,-3.89 c 0,6 -0.67,11.4 -1.99,16.19 -1.31,4.79 -3.25,8.88 -5.81,12.26 -2.56,3.38 -5.71,5.96 -9.44,7.75 -3.72,1.79 -7.99,2.69 -12.81,2.69 -2.22,0 -4.28,-0.22 -6.17,-0.66 -1.89,-0.43 -3.74,-1.14 -5.55,-2.11 -1.81,-0.96 -3.62,-2.19 -5.44,-3.67 -1.81,-1.49 -3.72,-3.28 -5.73,-5.39 0,0 0,8.45 0,8.45 0,0.41 -0.11,0.77 -0.31,1.08 -0.21,0.31 -0.55,0.55 -1.02,0.72 -0.47,0.18 -1.05,0.32 -1.75,0.42 -0.7,0.11 -1.59,0.16 -2.67,0.16 -1.03,0 -1.92,-0.05 -2.64,-0.16 -0.73,-0.1 -1.33,-0.24 -1.8,-0.42 -0.46,-0.17 -0.76,-0.42 -0.92,-0.73 -0.16,-0.31 -0.23,-0.67 -0.23,-1.08 0,0 0,-103.14 0,-103.14 0,-0.41 0.08,-0.77 0.26,-1.08 0.19,-0.31 0.52,-0.57 1.02,-0.77 0.48,-0.2 1.14,-0.36 1.96,-0.46 0.84,-0.11 1.88,-0.16 3.13,-0.16 1.29,0 2.35,0.05 3.17,0.16 0.83,0.1 1.48,0.26 1.94,0.46 0.47,0.22 0.8,0.47 1.02,0.79 0.2,0.3 0.31,0.66 0.31,1.07 0,0 0,41.9 0,41.9 2.07,-2.11 4.08,-3.87 6.01,-5.3 1.94,-1.44 3.84,-2.6 5.71,-3.5 1.86,-0.9 3.72,-1.55 5.59,-1.96 1.86,-0.41 3.83,-0.62 5.91,-0.62 5.07,0 9.4,1 13,3 3.59,2 6.51,4.68 8.76,8.03 2.26,3.36 3.91,7.29 4.94,11.8 1.03,4.5 1.55,9.26 1.55,14.28 z m -13.5,1.47 c 0,-3.52 -0.28,-6.94 -0.83,-10.27 -0.54,-3.32 -1.49,-6.26 -2.83,-8.81 -1.34,-2.55 -3.13,-4.6 -5.36,-6.16 -2.22,-1.56 -4.98,-2.34 -8.3,-2.34 -1.65,0 -3.29,0.23 -4.89,0.69 -1.6,0.46 -3.23,1.22 -4.89,2.29 -1.65,1.07 -3.38,2.44 -5.17,4.13 -1.78,1.68 -3.68,3.79 -5.7,6.33 0,0 0,27.59 0,27.59 3.52,4.22 6.88,7.44 10.09,9.66 3.21,2.21 6.55,3.31 10.02,3.31 3.2,0 5.94,-0.77 8.22,-2.3 2.28,-1.53 4.13,-3.55 5.56,-6.08 1.42,-2.53 2.46,-5.36 3.11,-8.5 0.64,-3.14 0.97,-6.32 0.97,-9.54 z m 74.06,-30.58 c 0,1.12 -0.03,2.07 -0.08,2.84 -0.05,0.78 -0.16,1.39 -0.31,1.83 -0.16,0.44 -0.36,0.78 -0.6,1.02 -0.23,0.23 -0.54,0.34 -0.95,0.34 -0.42,0 -0.92,-0.11 -1.51,-0.34 -0.6,-0.24 -1.28,-0.48 -2.04,-0.71 -0.75,-0.23 -1.59,-0.46 -2.51,-0.67 -0.93,-0.2 -1.94,-0.31 -3.03,-0.31 -1.3,0 -2.56,0.26 -3.8,0.77 -1.24,0.51 -2.55,1.35 -3.92,2.53 -1.38,1.16 -2.81,2.72 -4.31,4.67 -1.5,1.94 -3.16,4.31 -4.97,7.11 0,0 0,45.53 0,45.53 0,0.42 -0.11,0.77 -0.31,1.05 -0.22,0.28 -0.55,0.52 -1.02,0.73 -0.46,0.2 -1.11,0.35 -1.94,0.45 -0.82,0.11 -1.88,0.16 -3.17,0.16 -1.25,0 -2.29,-0.05 -3.13,-0.16 -0.82,-0.1 -1.48,-0.25 -1.96,-0.45 -0.5,-0.21 -0.83,-0.45 -1.02,-0.73 -0.18,-0.28 -0.26,-0.63 -0.26,-1.05 0,0 0,-69.22 0,-69.22 0,-0.41 0.07,-0.77 0.23,-1.05 0.16,-0.28 0.46,-0.53 0.92,-0.76 0.47,-0.23 1.07,-0.38 1.8,-0.46 0.72,-0.08 1.69,-0.12 2.87,-0.12 1.14,0 2.08,0.04 2.83,0.12 0.75,0.08 1.33,0.23 1.75,0.46 0.42,0.23 0.71,0.48 0.89,0.76 0.19,0.28 0.28,0.64 0.28,1.05 0,0 0,10.08 0,10.08 1.91,-2.75 3.7,-4.99 5.38,-6.74 1.69,-1.73 3.28,-3.1 4.78,-4.09 1.51,-1 3,-1.69 4.47,-2.06 1.47,-0.38 2.97,-0.58 4.47,-0.58 0.66,0 1.42,0.04 2.28,0.12 0.85,0.08 1.74,0.22 2.67,0.43 0.94,0.2 1.78,0.43 2.53,0.68 0.75,0.25 1.28,0.51 1.59,0.77 0.32,0.26 0.52,0.51 0.63,0.73 0.1,0.23 0.19,0.53 0.27,0.89 0.08,0.36 0.13,0.89 0.15,1.58 0.03,0.69 0.05,1.62 0.05,2.8 z m 74.01,64.61 c 0,0.42 -0.09,0.77 -0.28,1.05 -0.18,0.28 -0.5,0.52 -0.97,0.73 -0.46,0.2 -1.06,0.35 -1.81,0.45 -0.75,0.11 -1.67,0.16 -2.76,0.16 -1.19,0 -2.16,-0.05 -2.91,-0.16 -0.75,-0.1 -1.34,-0.25 -1.78,-0.45 -0.44,-0.21 -0.74,-0.45 -0.89,-0.73 -0.16,-0.28 -0.24,-0.63 -0.24,-1.05 0,0 0,-9.14 0,-9.14 -3.99,4.35 -7.93,7.53 -11.81,9.53 -3.87,2 -7.81,3 -11.8,3 -4.65,0 -8.57,-0.77 -11.76,-2.3 -3.18,-1.54 -5.75,-3.63 -7.72,-6.26 -1.97,-2.65 -3.38,-5.73 -4.23,-9.24 -0.86,-3.52 -1.29,-7.79 -1.29,-12.81 0,0 0,-42 0,-42 0,-0.41 0.09,-0.77 0.27,-1.05 0.19,-0.28 0.54,-0.53 1.06,-0.76 0.52,-0.23 1.19,-0.38 2.02,-0.46 0.83,-0.08 1.87,-0.12 3.11,-0.12 1.24,0 2.27,0.04 3.09,0.12 0.83,0.08 1.49,0.23 1.99,0.46 0.48,0.23 0.83,0.48 1.04,0.76 0.21,0.28 0.32,0.63 0.32,1.04 0,0 0,40.26 0,40.26 0,4.04 0.29,7.28 0.89,9.72 0.59,2.44 1.5,4.52 2.71,6.23 1.22,1.71 2.76,3.04 4.63,3.99 1.86,0.95 4.03,1.42 6.51,1.42 3.21,0 6.4,-1.12 9.58,-3.36 3.19,-2.25 6.57,-5.54 10.14,-9.87 0,0 0,-48.38 0,-48.38 0,-0.41 0.09,-0.77 0.27,-1.05 0.19,-0.28 0.53,-0.53 1.05,-0.76 0.52,-0.23 1.18,-0.38 1.98,-0.46 0.81,-0.08 1.86,-0.12 3.16,-0.12 1.24,0 2.27,0.04 3.09,0.12 0.83,0.08 1.48,0.23 1.94,0.46 0.47,0.23 0.81,0.48 1.05,0.76 0.23,0.28 0.35,0.64 0.35,1.05 0,0 0,69.22 0,69.22 z m -36.4,-91.94 c 0,2.84 -0.53,4.77 -1.56,5.8 -1.04,1.02 -2.95,1.53 -5.74,1.53 -2.79,0 -4.68,-0.5 -5.67,-1.5 -0.98,-1.01 -1.47,-2.88 -1.47,-5.59 0,-2.89 0.5,-4.84 1.52,-5.86 1,-1.03 2.91,-1.55 5.7,-1.55 2.84,0 4.75,0.52 5.73,1.55 0.99,1.02 1.49,2.9 1.49,5.62 z m 27.48,0 c 0,2.84 -0.52,4.77 -1.56,5.8 -1.03,1.02 -2.95,1.53 -5.73,1.53 -2.8,0 -4.69,-0.5 -5.68,-1.5 -0.98,-1.01 -1.46,-2.88 -1.46,-5.59 0,-2.89 0.5,-4.84 1.51,-5.86 1.01,-1.03 2.91,-1.55 5.7,-1.55 2.85,0 4.76,0.52 5.74,1.55 0.99,1.02 1.48,2.9 1.48,5.62 z m -52.17,20.33 v 0 0 0 m 135.47,60.91 c 0,0.88 -0.03,1.65 -0.08,2.29 -0.05,0.65 -0.15,1.2 -0.28,1.64 -0.13,0.44 -0.28,0.83 -0.47,1.18 -0.18,0.33 -0.59,0.82 -1.23,1.46 -0.65,0.65 -1.75,1.46 -3.3,2.43 -1.55,0.96 -3.3,1.81 -5.25,2.56 -1.94,0.75 -4.05,1.36 -6.33,1.83 -2.27,0.47 -4.62,0.7 -7.05,0.7 -5.02,0 -9.47,-0.82 -13.35,-2.45 -3.89,-1.65 -7.14,-4.05 -9.75,-7.21 -2.61,-3.15 -4.6,-7.02 -5.97,-11.61 -1.38,-4.59 -2.07,-9.89 -2.07,-15.89 0,-6.82 0.84,-12.68 2.52,-17.57 1.69,-4.9 3.99,-8.91 6.92,-12.04 2.93,-3.13 6.37,-5.45 10.33,-6.96 3.96,-1.51 8.24,-2.27 12.84,-2.27 2.23,0 4.39,0.2 6.49,0.59 2.09,0.4 4.02,0.92 5.78,1.57 1.76,0.64 3.32,1.39 4.69,2.25 1.37,0.84 2.37,1.56 3,2.15 0.62,0.6 1.05,1.07 1.28,1.42 0.22,0.35 0.42,0.77 0.58,1.27 0.15,0.49 0.25,1.05 0.31,1.67 0.05,0.63 0.08,1.41 0.08,2.35 0,2.04 -0.24,3.46 -0.71,4.28 -0.46,0.8 -1.02,1.2 -1.7,1.2 -0.77,0 -1.66,-0.41 -2.67,-1.23 -1.01,-0.84 -2.29,-1.76 -3.84,-2.77 -1.56,-1.01 -3.44,-1.93 -5.65,-2.75 -2.19,-0.83 -4.79,-1.25 -7.79,-1.25 -6.16,0 -10.89,2.34 -14.17,7.03 -3.29,4.69 -4.93,11.49 -4.93,20.41 0,4.46 0.43,8.36 1.28,11.72 0.86,3.35 2.11,6.16 3.77,8.42 1.66,2.25 3.69,3.93 6.09,5.03 2.41,1.09 5.16,1.64 8.27,1.64 2.95,0 5.54,-0.47 7.77,-1.42 2.22,-0.95 4.15,-1.99 5.78,-3.11 1.63,-1.13 3,-2.16 4.11,-3.08 1.11,-0.93 1.98,-1.39 2.61,-1.39 0.36,0 0.67,0.11 0.92,0.31 0.26,0.21 0.47,0.56 0.65,1.05 0.19,0.49 0.32,1.12 0.39,1.87 0.09,0.75 0.13,1.65 0.13,2.68 z m 74.14,10.62 c 0,0.42 -0.11,0.78 -0.31,1.09 -0.21,0.31 -0.56,0.56 -1.05,0.77 -0.49,0.2 -1.18,0.35 -2.06,0.45 -0.88,0.11 -1.99,0.16 -3.33,0.16 -1.4,0 -2.55,-0.04 -3.45,-0.11 -0.91,-0.08 -1.67,-0.21 -2.3,-0.39 -0.62,-0.18 -1.12,-0.43 -1.52,-0.77 -0.38,-0.33 -0.73,-0.73 -1.04,-1.2 0,0 -29.5,-38.3 -29.5,-38.3 0,0 0,38.38 0,38.38 0,0.42 -0.11,0.77 -0.31,1.05 -0.22,0.28 -0.55,0.52 -1.02,0.73 -0.46,0.2 -1.11,0.35 -1.94,0.45 -0.82,0.11 -1.88,0.16 -3.17,0.16 -1.25,0 -2.29,-0.05 -3.13,-0.16 -0.82,-0.1 -1.48,-0.25 -1.96,-0.45 -0.5,-0.21 -0.83,-0.45 -1.02,-0.73 -0.18,-0.29 -0.26,-0.64 -0.26,-1.05 0,0 0,-103.14 0,-103.14 0,-0.41 0.08,-0.77 0.26,-1.08 0.19,-0.31 0.52,-0.57 1.02,-0.77 0.48,-0.2 1.14,-0.36 1.96,-0.46 0.84,-0.11 1.88,-0.16 3.13,-0.16 1.29,0 2.35,0.05 3.17,0.16 0.83,0.1 1.48,0.26 1.94,0.46 0.47,0.2 0.8,0.46 1.02,0.77 0.2,0.31 0.31,0.67 0.31,1.08 0,0 0,63 0,63 0,0 26.39,-28.78 26.39,-28.78 0.41,-0.51 0.86,-0.93 1.33,-1.27 0.47,-0.33 1.02,-0.61 1.67,-0.84 0.64,-0.23 1.4,-0.38 2.28,-0.46 0.88,-0.08 1.94,-0.12 3.19,-0.12 1.29,0 2.37,0.04 3.25,0.12 0.88,0.08 1.59,0.2 2.14,0.38 0.55,0.18 0.94,0.41 1.17,0.69 0.23,0.28 0.34,0.65 0.34,1.12 0,0.62 -0.16,1.23 -0.5,1.85 -0.33,0.61 -0.89,1.33 -1.67,2.15 0,0 -25.31,25.08 -25.31,25.08 0,0 28.42,36.53 28.42,36.53 0.66,0.88 1.14,1.59 1.42,2.13 0.29,0.53 0.44,1.02 0.44,1.48 z"
     style="display:none;fill:#000000;fill-opacity:1" />
  <path
     id="Path #1"
     fill="none"
     stroke="#000000"
     stroke-width="1"
     d="m 537.83168,130.05855 c 0,0 0,-99.999999 0,-99.999999 0,0 44.44,0 44.44,0 8.94,0 15.72,0.9 20.37,2.69 4.65,1.78 8.36,4.93 11.14,9.45 2.78,4.52 4.17,9.52 4.17,14.98 0,7.06 -2.3,13 -6.9,17.83 -4.61,4.84 -11.72,7.91 -21.33,9.22 3.51,1.7 6.18,3.37 8,5.02 3.88,3.57 7.54,8.04 11,13.389999 0,0 17.44,27.42 17.44,27.42 0,0 -16.69,0 -16.69,0 0,0 -13.25,-20.97 -13.25,-20.97 -3.87,-6.05 -7.07,-10.669999 -9.58,-13.869999 -2.5,-3.21 -4.74,-5.46 -6.73,-6.74 -1.98,-1.29 -4,-2.19 -6.05,-2.69 -1.5,-0.32 -3.96,-0.48 -7.37,-0.48 0,0 -15.39,0 -15.39,0 0,0 0,44.749999 0,44.749999 0,0 -13.27,0 -13.27,0 z m 13.27,-55.999999 c 0,0 28.51,0 28.51,0 6.05,0 10.79,-0.62 14.2,-1.86 3.43,-1.24 6.03,-3.22 7.8,-5.94 1.78,-2.72 2.67,-5.68 2.67,-8.87 0,-4.69 -1.72,-8.54 -5.17,-11.55 -3.44,-3.02 -8.87,-4.53 -16.3,-4.53 0,0 -31.71,0 -31.71,0 0,0 0,32.75 0,32.75 z m 135.65,31.999999 c 0,0 12.72,1.58 12.72,1.58 -2,7.42 -5.71,13.18 -11.14,17.28 -5.43,4.09 -12.36,6.14 -20.78,6.14 -10.62,0 -19.04,-3.23 -25.27,-9.69 -6.22,-6.47 -9.33,-15.53 -9.33,-27.199999 0,-12.07 3.15,-21.44 9.44,-28.11 6.29,-6.66 14.45,-10 24.47,-10 9.71,0 17.63,3.3 23.78,9.89 6.16,6.59 9.24,15.87 9.24,27.83 0,0.73 -0.03,1.82 -0.07,3.28 0,0 -54.14,0 -54.14,0 0.46,7.679999 2.71,13.559999 6.77,17.639999 4.05,4.07 9.11,6.11 15.17,6.11 4.51,0 8.36,-1.17 11.55,-3.52 3.19,-2.34 5.72,-6.08 7.59,-11.23 z m -40.39,-19.249999 c 0,0 40.53,0 40.53,0 -0.54,-6 -2.09,-10.5 -4.64,-13.52 -3.93,-4.65 -9.01,-6.98 -15.25,-6.98 -5.65,0 -10.41,1.86 -14.26,5.58 -3.85,3.72 -5.97,8.69 -6.38,14.92 z m 68.7,43.249999 c 0,0 0,-72.999999 0,-72.999999 0,0 11,0 11,0 0,0 0,10.67 0,10.67 2.29,-3.51 5.32,-6.33 9.1,-8.47 3.78,-2.13 8.08,-3.2 12.92,-3.2 5.37,0 9.78,1.11 13.22001,3.31 3.44,2.2 5.87,5.28 7.28,9.24 5.75,-8.37 13.22,-12.55 22.42,-12.55 7.21,0 12.74,1.99 16.61,5.97 3.88,3.97 5.81,10.09 5.81,18.36 0,0 0,49.669999 0,49.669999 0,0 -12.23,0 -12.23,0 0,0 0,-45.669999 0,-45.669999 0,-4.92 -0.4,-8.46 -1.2,-10.63 -0.8,-2.16 -2.24,-3.9 -4.33,-5.22 -2.1,-1.32 -4.56,-1.98 -7.39,-1.98 -5.11,0 -9.35,1.7 -12.72,5.09 -3.37,3.39 -5.05,8.82 -5.05,16.29 0,0 0,42.119999 0,42.119999 0,0 -12.31001,0 -12.31001,0 0,0 0,-47.109999 0,-47.109999 0,-5.47 -1.01,-9.57 -3.02,-12.3 -2,-2.72 -5.27,-4.09 -9.82,-4.09 -3.47,0 -6.68,0.91 -9.61,2.73 -2.94,1.83 -5.07,4.5 -6.39,8 -1.33,3.5 -1.99,8.55 -1.99,15.15 0,0 0,37.619999 0,37.619999 0,0 -12.3,0 -12.3,0 z M 827.49169,93.558551 c 0,-13.29 3.73,-23.13 11.2,-29.53 6.24,-5.31 13.85,-7.97 22.83,-7.97 9.97,0 18.13,3.23 24.47,9.7 6.34,6.46 9.51,15.39 9.51,26.78 0,9.249999 -1.4,16.509999 -4.2,21.799999 -2.81,5.29 -6.89,9.4 -12.25,12.33 -5.36,2.93 -11.2,4.39 -17.53,4.39 -10.16,0 -18.37,-3.22 -24.64,-9.66 -6.26,-6.44 -9.39,-15.72 -9.39,-27.839999 z m 12.64,-0.03 c 0,9.119999 2.02,15.939999 6.08,20.479999 4.06,4.53 9.16,6.8 15.31,6.8 6.11,0 11.19,-2.27 15.25,-6.83 4.05,-4.56 6.08,-11.51 6.08,-20.859999 0,-8.8 -2.05,-15.47 -6.13,-20 -4.07,-4.54 -9.14,-6.81 -15.2,-6.81 -6.15,0 -11.25,2.26 -15.31,6.78 -4.06,4.51 -6.08,11.33 -6.08,20.44 z m 96.79,25.279999 c 0,0 1.79,11.25 1.79,11.25 -3.47,0.66 -6.58,1 -9.3,1 -4.47,0 -7.94,-0.71 -10.39,-2.12 -2.46,-1.43 -4.2,-3.31 -5.21,-5.63 -1,-2.32 -1.5,-7.2 -1.5,-14.64 0,0 0,-42.109999 0,-42.109999 0,0 -9.01,0 -9.01,0 0,0 0,-9.5 0,-9.5 0,0 9.01,0 9.01,0 0,0 0,-17.72 0,-17.72 0,0 12.24,-7.28 12.24,-7.28 0,0 0,25 0,25 0,0 12.37,0 12.37,0 0,0 0,9.5 0,9.5 0,0 -12.37,0 -12.37,0 0,0 0,43.059999 0,43.059999 0,3.56 0.21,5.84 0.64,6.86 0.44,1.03 1.14,1.84 2.12,2.44 0.98,0.59 2.38,0.89 4.21,0.89 1.37,0 3.17,-0.33 5.4,-1 z m 61.83004,-12.75 c 0,0 12.72007,1.58 12.72007,1.58 -2,7.42 -5.71,13.18 -11.14,17.28 -5.43007,4.09 -12.36007,6.14 -20.78011,6.14 -10.62,0 -19.04,-3.23 -25.27,-9.69 -6.22,-6.47 -9.33,-15.53 -9.33,-27.199999 0,-12.07 3.15,-21.44 9.44,-28.11 6.29,-6.66 14.45,-10 24.47,-10 9.71004,0 17.63004,3.3 23.78011,9.89 6.16,6.59 9.24,15.87 9.24,27.83 0,0.73 -0.03,1.82 -0.07,3.28 0,0 -54.14011,0 -54.14011,0 0.46,7.679999 2.71,13.559999 6.77,17.639999 4.05,4.07 9.11,6.11 15.17,6.11 4.51004,0 8.36004,-1.17 11.55004,-3.52 3.19,-2.34 5.72,-6.08 7.59,-11.23 z M 958.36169,86.808551 c 0,0 40.53004,0 40.53004,0 -0.54,-6 -2.09,-10.5 -4.64,-13.52 -3.93,-4.65 -9.01,-6.98 -15.25004,-6.98 -5.65,0 -10.41,1.86 -14.26,5.58 -3.85,3.72 -5.97,8.69 -6.38,14.92 z M 533.13168,266.14856 c 0,0 12.5,-1.09 12.5,-1.09 0.59,5.04 1.97,9.18 4.14,12.42 2.16,3.23 5.52,5.85 10.08,7.85 4.56,1.99 9.69,2.98 15.39,2.98 5.05,0 9.51,-0.74 13.39,-2.23 3.87,-1.5 6.75,-3.56 8.64,-6.16 1.89,-2.61 2.84,-5.46 2.84,-8.55 0,-3.12 -0.91,-5.85 -2.73,-8.19 -1.83,-2.33 -4.83,-4.28 -9.02,-5.87 -2.7,-1.04 -8.65,-2.66 -17.86,-4.86 -9.2,-2.21 -15.64,-4.28 -19.33,-6.23 -4.79,-2.49 -8.36,-5.58 -10.7,-9.27 -2.34,-3.69 -3.52,-7.84 -3.52,-12.42 0,-5.03 1.43,-9.74 4.3,-14.11 2.88,-4.38 7.07,-7.69 12.58,-9.95 5.52,-2.27 11.65,-3.41 18.39,-3.41 7.43,0 13.98,1.2 19.66,3.61 5.67,2.4 10.04,5.93 13.09,10.59 3.05,4.66 4.69,9.94 4.92,15.85 0,0 -12.72,0.95 -12.72,0.95 -0.68,-6.34 -3,-11.13 -6.95,-14.38 -3.94,-3.24 -9.76,-4.87 -17.45,-4.87 -8.03,0 -13.87,1.46 -17.53,4.37 -3.67,2.92 -5.5,6.44 -5.5,10.55 0,3.58 1.29,6.52 3.89,8.83 2.55,2.3 9.21,4.67 19.98,7.09 10.78,2.42 18.18,4.53 22.19,6.33 5.83,2.68 10.14,6.06 12.92,10.16 2.78,4.09 4.17,8.81 4.17,14.14 0,5.29 -1.52,10.28 -4.58,14.97 -3.05,4.68 -7.43,8.32 -13.15,10.92 -5.72,2.59 -12.16,3.89 -19.31,3.89 -9.08,0 -16.68,-1.32 -22.82,-3.97 -6.12,-2.64 -10.93,-6.62 -14.42,-11.92 -3.48,-5.31 -5.31,-11.32 -5.48,-18.02 z m 145.62,8.91 c 0,0 12.72,1.58 12.72,1.58 -2,7.42 -5.71,13.18 -11.14,17.28 -5.43,4.09 -12.36,6.14 -20.78,6.14 -10.62,0 -19.04,-3.23 -25.27,-9.69 -6.22,-6.47 -9.33,-15.53 -9.33,-27.2 0,-12.07 3.15,-21.44 9.44,-28.11 6.29,-6.66 14.45,-10 24.47,-10 9.71,0 17.63,3.3 23.78,9.89 6.16,6.59 9.24,15.87 9.24,27.83 0,0.73 -0.03,1.82 -0.07,3.28 0,0 -54.14,0 -54.14,0 0.46,7.68 2.71,13.56 6.77,17.64 4.05,4.07 9.11,6.11 15.17,6.11 4.51,0 8.36,-1.17 11.55,-3.52 3.19,-2.34 5.72,-6.08 7.59,-11.23 z m -40.39,-19.25 c 0,0 40.53,0 40.53,0 -0.54,-6 -2.09,-10.5 -4.64,-13.52 -3.93,-4.65 -9.01,-6.98 -15.25,-6.98 -5.65,0 -10.41,1.86 -14.26,5.58 -3.85,3.72 -5.97,8.69 -6.38,14.92 z m 68.7,43.25 c 0,0 0,-73 0,-73 0,0 11.07,0 11.07,0 0,0 0,10.8 0,10.8 5.33,-7.87 13.03,-11.8 23.11,-11.8 4.37,0 8.39,0.79 12.06,2.36 3.67,1.56 6.42001,3.62 8.25001,6.16 1.82,2.54 3.1,5.56 3.83,9.06 0.44,2.27 0.67,6.24 0.67,11.92 0,0 0,44.5 0,44.5 0,0 -12.30001,0 -12.30001,0 0,0 0,-44.11 0,-44.11 0,-5.01 -0.48,-8.75 -1.44,-11.23 -0.96,-2.48 -2.65,-4.46 -5.09,-5.94 -2.44,-1.48 -5.3,-2.22 -8.58,-2.22 -5.24,0 -9.76,1.66 -13.58,4.98 -3.8,3.33 -5.7,9.63 -5.7,18.91 0,0 0,39.61 0,39.61 0,0 -12.3,0 -12.3,0 z m 73.08001,-22.09 c 0,0 12.16,-1.91 12.16,-1.91 0.69,4.76 2.58,8.41 5.7,10.95 3.13,2.53 7.49,3.8 13.11,3.8 5.65,0 9.83,-1.11 12.56,-3.33 2.74,-2.22 4.11,-4.84 4.11,-7.84 0,-2.69 -1.21,-4.8 -3.62,-6.35 -1.69,-1.05 -5.88,-2.39 -12.58,-4.03 -9.02,-2.25 -15.28,-4.22 -18.77,-5.87 -3.48,-1.66 -6.12,-3.94 -7.92,-6.86 -1.8,-2.93 -2.7,-6.16 -2.7,-9.69 0,-3.21 0.74,-6.18 2.22,-8.92 1.47,-2.74 3.49,-5.02 6.04,-6.83 1.92,-1.41 4.53,-2.59 7.83,-3.56 3.3,-0.98 6.85,-1.47 10.64,-1.47 5.69,0 10.68,0.82 14.99,2.47 4.31,1.64 7.49,3.85 9.54,6.65 2.06,2.81 3.47,6.55 4.24,11.24 0,0 -12.03,1.64 -12.03,1.64 -0.54,-3.69 -2.13,-6.57 -4.75,-8.64 -2.62,-2.07 -6.32,-3.11 -11.11,-3.11 -5.65,0 -9.68,0.92 -12.09,2.75 -2.42,1.82 -3.63,3.96 -3.63,6.42 0,1.56 0.5,2.97 1.5,4.22 1.01,1.29 2.58,2.37 4.72,3.22 1.23,0.45 4.85,1.48 10.87,3.08 8.71,2.29 14.78,4.17 18.22,5.64 3.44,1.46 6.14,3.58 8.1,6.37 1.95,2.78 2.93,6.25 2.93,10.38 0,4.05 -1.2,7.87 -3.59,11.44 -2.39,3.57 -5.84,6.34 -10.34,8.29 -4.52,1.96 -9.62,2.94 -15.32,2.94 -9.43,0 -16.63,-1.94 -21.57,-5.83 -4.94,-3.88 -8.09,-9.64 -9.46,-17.26 z m 74.99,-63.91 c 0,0 0,-14 0,-14 0,0 12.31,0 12.31,0 0,0 0,14 0,14 0,0 -12.31,0 -12.31,0 z m 0,86 c 0,0 0,-73 0,-73 0,0 12.31,0 12.31,0 0,0 0,73 0,73 0,0 -12.31,0 -12.31,0 z m 30.93,0 c 0,0 0,-73 0,-73 0,0 11.07,0 11.07,0 0,0 0,10.8 0,10.8 5.33,-7.87 13.03,-11.8 23.11,-11.8 4.37,0 8.39,0.79 12.06,2.36 3.67,1.56 6.42,3.62 8.25,6.16 1.82,2.54 3.1,5.56 3.83,9.06 0.44,2.27 0.67,6.24 0.67,11.92 0,0 0,44.5 0,44.5 0,0 -12.3,0 -12.3,0 0,0 0,-44.11 0,-44.11 0,-5.01 -0.48,-8.75 -1.44,-11.23 -0.96,-2.48 -2.65,-4.46 -5.09,-5.94 -2.44,-1.48 -5.3,-2.22 -8.58,-2.22 -5.24,0 -9.76,1.66 -13.58,4.98 -3.8,3.33 -5.7,9.63 -5.7,18.91 0,0 0,39.61 0,39.61 0,0 -12.3,0 -12.3,0 z m 75.74,6 c 0,0 11.97,1.7 11.97,1.7 0.5,3.55 1.89,6.14 4.17,7.77 3.05,2.19 7.22004,3.28 12.50004,3.28 5.69,0 10.09007,-1.12 13.19007,-3.36 3.1,-2.24 5.2,-5.38 6.29,-9.42 0.65,-2.46 0.95,-7.63 0.89,-15.53 -5.37,6.37 -12.07007,9.56 -20.09007,9.56 -9.98004,0 -17.70004,-3.59 -23.17004,-10.77 -5.47,-7.17 -8.2,-15.78 -8.2,-25.82 0,-6.91 1.25,-13.28 3.75,-19.11 2.5,-5.84 6.14,-10.34 10.9,-13.52 4.76,-3.19 10.35004,-4.78 16.78004,-4.78 8.57,0 15.64007,3.48 21.21007,10.45 0,0 0,-9.45 0,-9.45 0,0 11.34,0 11.34,0 0,0 0,62.72 0,62.72 0,11.29 -1.15,19.29 -3.45,24 -2.31,4.72 -5.95,8.44 -10.94,11.17 -4.99,2.74 -11.13007,4.11 -18.42007,4.11 -8.66004,0 -15.65004,-1.91 -20.99004,-5.73 -5.33,-3.83 -7.91,-9.58 -7.73,-17.27 z m 10.19,-43.47 c 0,9.46 1.89,16.36 5.67,20.7 3.78,4.35 8.52004,6.52 14.22004,6.52 5.65,0 10.39007,-2.16 14.22007,-6.48 3.83,-4.32 5.75,-11.1 5.75,-20.33 0,-8.83 -1.98,-15.49 -5.93,-19.97 -3.93,-4.48 -8.68007,-6.72 -14.25007,-6.72 -5.46,0 -10.12004,2.21 -13.95004,6.63 -3.82,4.4 -5.73,10.96 -5.73,19.65 z M 533.60168,418.88857 c 0,-16.52 4.46,-29.45001 13.39,-38.80001 8.93,-9.35 20.46,-14.03 34.59,-14.03 9.26,0 17.6,2.2 25.03,6.59 7.43,4.39 13.09,10.51 16.99,18.36 3.89,7.86 5.84,16.76001 5.84,26.72001 0,10.1 -2.06,19.13 -6.16,27.1 -4.1,7.96 -9.91,13.99 -17.43,18.09 -7.52,4.09 -15.63,6.14 -24.33,6.14 -9.44,0 -17.87,-2.26 -25.3,-6.78 -7.43,-4.53 -13.06,-10.71 -16.89,-18.55 -3.82,-7.83 -5.73,-16.11 -5.73,-24.84 z m 13.67,0.17 c 0,12.01 3.24,21.48 9.73,28.39 6.5,6.91 14.65,10.36 24.45,10.36 9.98,0 18.2,-3.49 24.65,-10.47 6.44,-6.98 9.67,-16.88 9.67,-29.72 0,-8.11 -1.39,-15.19 -4.14,-21.23001 -2.75,-6.05 -6.78,-10.74 -12.1,-14.08 -5.31,-3.33 -11.27,-5 -17.87,-5 -9.39,0 -17.47,3.21 -24.24,9.63 -6.77,6.4 -10.15,17.11001 -10.15,32.12001 z m 92.87,26.91 c 0,0 12.16,-1.91 12.16,-1.91 0.69,4.76 2.58,8.41 5.7,10.95 3.13,2.53 7.49,3.8 13.11,3.8 5.65,0 9.83,-1.11 12.56,-3.33 2.74,-2.22 4.11,-4.84 4.11,-7.84 0,-2.69 -1.21,-4.8 -3.62,-6.35 -1.69,-1.05 -5.88,-2.39 -12.58,-4.03 -9.02,-2.25 -15.28,-4.22 -18.77,-5.87 -3.48,-1.66 -6.12,-3.94 -7.92,-6.86 -1.8,-2.93 -2.7,-6.16 -2.7,-9.69 0,-3.21 0.74,-6.18 2.22,-8.92 1.47,-2.74 3.49,-5.02001 6.04,-6.83001 1.92,-1.41 4.53,-2.59 7.83,-3.56 3.3,-0.98 6.85,-1.47 10.64,-1.47 5.69,0 10.68,0.82 14.99,2.47 4.31,1.64 7.49,3.85 9.54,6.65001 2.06,2.81 3.47,6.55 4.24,11.24 0,0 -12.03,1.64 -12.03,1.64 -0.54,-3.69 -2.13,-6.57 -4.75,-8.64 -2.62,-2.07 -6.32,-3.11 -11.11,-3.11 -5.65,0 -9.68,0.92 -12.09,2.75 -2.42,1.82 -3.63,3.96 -3.63,6.42 0,1.56 0.5,2.97 1.5,4.22 1.01,1.29 2.58,2.37 4.72,3.22 1.23,0.45 4.85,1.48 10.87,3.08 8.71,2.29 14.78,4.17 18.22,5.64 3.44,1.46 6.14,3.58 8.1,6.37 1.95,2.78 2.93,6.25 2.93,10.38 0,4.05 -1.2,7.87 -3.59,11.44 -2.39,3.57 -5.84,6.34 -10.34,8.29 -4.52,1.96 -9.62,2.94 -15.32,2.94 -9.43,0 -16.63,-1.94 -21.57,-5.83 -4.94,-3.88 -8.09,-9.64 -9.46,-17.26 z m 74.92,22.09 c 0,0 0,-73.00001 0,-73.00001 0,0 11.07,0 11.07,0 0,0 0,10.80001 0,10.80001 5.33,-7.87001 13.03,-11.80001 23.11,-11.80001 4.37,0 8.39,0.79 12.06001,2.36 3.67,1.56 6.42,3.62 8.25,6.16001 1.82,2.54 3.1,5.56 3.83,9.06 0.44,2.27 0.67,6.24 0.67,11.92 0,0 0,44.5 0,44.5 0,0 -12.3,0 -12.3,0 0,0 0,-44.11 0,-44.11 0,-5.01 -0.48,-8.75 -1.44,-11.23 -0.96,-2.48 -2.65001,-4.46 -5.09001,-5.94 -2.44,-1.48 -5.3,-2.22 -8.58,-2.22 -5.24,0 -9.76,1.66 -13.58,4.98 -3.8,3.33 -5.7,9.63 -5.7,18.91 0,0 0,39.61 0,39.61 0,0 -12.3,0 -12.3,0 z m 125.38001,-9.39 c -4.56,3.8 -8.95,6.48 -13.17,8.05 -4.21,1.56 -8.73,2.34 -13.56,2.34 -7.99,0 -14.11,-1.91 -18.4,-5.75 -4.28,-3.84 -6.42,-8.75 -6.42,-14.72 0,-3.5 0.81,-6.69 2.42,-9.59 1.62,-2.9 3.74,-5.22 6.36,-6.97 2.63,-1.75 5.58,-3.08 8.86,-3.99 2.41,-0.62 6.05,-1.22 10.94,-1.81 9.93,-1.16 17.24,-2.55 21.94,-4.17 0.04,-1.66 0.06,-2.72 0.06,-3.17 0,-4.95 -1.16,-8.44 -3.48,-10.47 -3.15,-2.74 -7.82,-4.11 -14.02,-4.11 -5.78,0 -10.05,1.01 -12.81,3.03 -2.76,2.02 -4.81,5.6 -6.13,10.72 0,0 -12.03,-1.64 -12.03,-1.64 1.1,-5.16 2.9,-9.32 5.41,-12.48 2.51,-3.17001 6.13,-5.61001 10.87,-7.32001 4.74,-1.7 10.23,-2.56 16.47,-2.56 6.2,0 11.24,0.73 15.11,2.19 3.88,1.45 6.72,3.27 8.55,5.48001 1.82,2.2 3.1,4.98 3.83,8.35 0.4,2.08 0.61,5.85 0.61,11.31 0,0 0,16.34 0,16.34 0,11.41 0.25,18.62 0.78,21.64 0.53,3.03 1.57,5.92 3.12,8.69 0,0 -12.86,0 -12.86,0 -1.27,-2.68 -2.09,-5.8 -2.45,-9.39 z m -1.03,-27.11 c -4.47,1.86 -11.17,3.43 -20.1,4.73 -5.06,0.72 -8.64,1.52 -10.73,2.41 -2.09,0.9 -3.71,2.2 -4.86,3.92 -1.14,1.71 -1.7,3.61 -1.7,5.71 0,3.21 1.24,5.88 3.72,8.03 2.48,2.13 6.12,3.2 10.9,3.2 4.74,0 8.96,-1.02 12.64,-3.06 3.7,-2.04 6.41,-4.83 8.14,-8.38 1.32,-2.74 1.99,-6.78 1.99,-12.12 0,0 0,-4.44 0,-4.44 z m 43,36.5 c 0,0 -11.42,0 -11.42,0 0,0 0,-100.00001 0,-100.00001 0,0 12.31,0 12.31,0 0,0 0,35.91001 0,35.91001 5.19,-6.61001 11.83,-9.91001 19.89,-9.91001 4.47,0 8.69,0.89 12.67,2.67 3.99,1.78 7.27,4.28 9.85,7.50001 2.58,3.22 4.6,7.11 6.06,11.66 1.45,4.55 2.18,9.42 2.18,14.59 0,12.29 -3.07,21.8 -9.23,28.52 -6.16,6.71 -13.54,10.06 -22.14,10.06 -8.57,0 -15.3,-3.62 -20.17,-10.86 0,0 0,9.86 0,9.86 z m -0.14,-37.03 c 0,8.52 1.18,14.68 3.56,18.47 3.88,6.21 9.11,9.31 15.72,9.31 5.37,0 10.02,-2.29 13.94,-6.86 3.92,-4.57 5.89,-11.39 5.89,-20.45 0,-9.29 -1.89,-16.15 -5.64,-20.56 -3.77,-4.42 -8.31,-6.63 -13.64,-6.63 -5.38,0 -10.03,2.29 -13.96,6.86 -3.92,4.57 -5.87,11.19 -5.87,19.86 z m 66.65,37.03 c 0,0 0,-73.00001 0,-73.00001 0,0 11.08,0 11.08,0 0,0 0,11.69001 0,11.69001 2.82,-5.17 5.43,-8.57001 7.81,-10.22001 2.4,-1.65 5.04,-2.47 7.91,-2.47 4.15,0 8.36004,1.32 12.64004,3.97 0,0 -4.23,11.45001 -4.23,11.45001 -3.01004,-1.78 -6.02004,-2.67 -9.02004,-2.67 -2.7,0 -5.12,0.81 -7.26,2.42 -2.14,1.61 -3.66,3.84 -4.57,6.71 -1.37,4.35 -2.06,9.11 -2.06,14.28 0,0 0,37.84 0,37.84 0,0 -12.3,0 -12.3,0 z m 94.72011,0 c 0,0 0,-11.22 0,-11.22 -5.65,8.15 -13.34,12.22 -23.04,12.22 -4.29,0 -8.29,-0.82 -12,-2.45 -3.72,-1.64 -6.47,-3.69 -8.27,-6.16 -1.80007,-2.48 -3.07007,-5.51 -3.80007,-9.11 -0.5,-2.4 -0.75,-6.22 -0.75,-11.44 0,0 0,-44.84001 0,-44.84001 0,0 12.32007,0 12.32007,0 0,0 0,40.17001 0,40.17001 0,6.42 0.25,10.74 0.75,12.95 0.77,3.24 2.4,5.77 4.9,7.61 2.51,1.85 5.62,2.77 9.31,2.77 3.69,0 7.15,-0.94 10.38,-2.83 3.24,-1.88 5.53,-4.45 6.87,-7.7 1.36,-3.26 2.04,-7.98 2.04,-14.16 0,0 0,-38.81001 0,-38.81001 0,0 12.29,0 12.29,0 0,0 0,73.00001 0,73.00001 0,0 -11,0 -11,0 z m -37.59,-82.00001 c 0,0 0,-14 0,-14 0,0 12.84,0 12.84,0 0,0 0,14 0,14 0,0 -12.84,0 -12.84,0 z m 25.5,0 c 0,0 0,-14 0,-14 0,0 12.84,0 12.84,0 0,0 0,14 0,14 0,0 -12.84,0 -12.84,0 z m 89.89,55.00001 c 0,0 12.09,1.58 12.09,1.58 -1.32,8.26 -4.71,14.73 -10.15,19.4 -5.45,4.68 -12.14,7.02 -20.07,7.02 -9.93,0 -17.93,-3.21 -23.96,-9.62 -6.04,-6.42 -9.05,-15.62 -9.05,-27.61 0,-7.74 1.3,-14.52 3.89,-20.33 2.6,-5.82 6.55,-10.17001 11.86,-13.08001 5.31,-2.91 11.09,-4.36 17.34,-4.36 7.88,0 14.32,2.01 19.33,6.03 5.02,4.02001 8.24,9.73001 9.66,17.13001 0,0 -11.97,1.84 -11.97,1.84 -1.14,-4.89 -3.15,-8.58 -6.05,-11.05 -2.9,-2.47 -6.4,-3.7 -10.5,-3.7 -6.2,0 -11.23,2.18 -15.11,6.53 -3.87,4.36 -5.81,11.24 -5.81,20.66 0,9.55 1.87,16.49 5.61,20.83 3.74,4.32 8.61,6.48 14.62,6.48 4.84,0 8.87,-1.45 12.1,-4.34 3.24,-2.91 5.29,-7.38 6.17,-13.41 z m 22.69,27 c 0,0 0,-100.00001 0,-100.00001 0,0 12.31,0 12.31,0 0,0 0,56.69001 0,56.69001 0,0 29.11,-29.69001 29.11,-29.69001 0,0 15.94,0 15.94,0 0,0 -27.77,27.08001 -27.77,27.08001 0,0 30.56,45.92 30.56,45.92 0,0 -15.17,0 -15.17,0 0,0 -24,-37.33 -24,-37.33 0,0 -8.67,8.39 -8.67,8.39 0,0 0,28.94 0,28.94 0,0 -12.31,0 -12.31,0 z"
     style="fill:#000000;fill-opacity:1;stroke:#969696;stroke-width:1.1811;stroke-miterlimit:4;stroke-dasharray:none;stroke-opacity:1" />
</svg>
